<svg viewBox="0 0 24 24" xmlns="http://www.w3.org/2000/svg"><path d="M5.268 4A2 2 0 0 1 7 3h10a2 2 0 0 1 1.732 1H20a2 2 0 0 1 2 2v3c0 3.223-1.505 5.574-4.219 5.948A7 7 0 0 1 13 17.929V19h1a2 2 0 0 1 2 2H8a2 2 0 0 1 2-2h1v-1.07a7 7 0 0 1-4.781-2.982C3.505 14.574 2 12.223 2 9V6a2 2 0 0 1 2-2h1.268ZM5 6H4v3c0 1.531.39 2.675 1.128 3.338A7.036 7.036 0 0 1 5 11V6Zm14 0v5c0 .458-.044.905-.128 1.338C19.61 11.675 20 10.531 20 9V6h-1ZM7 5v6a5 5 0 0 0 10 0V5H7Z" fill-rule="evenodd" fill="#ffffff" class="fill-000000"></path></svg>