<svg viewBox="0 0 24 24" xmlns="http://www.w3.org/2000/svg"><path d="M12 1a9.956 9.956 0 0 0-10 9.889 9.789 9.789 0 0 0 3.375 7.4v1.488A3.24 3.24 0 0 0 8.625 23h6.75a3.24 3.24 0 0 0 3.25-3.222V18.29A9.789 9.789 0 0 0 22 10.889 9.956 9.956 0 0 0 12 1Zm5 16.038a1 1 0 0 0-.379.784v1.956A1.238 1.238 0 0 1 15.375 21H15v-3a1 1 0 0 0-2 0v3h-2v-3a1 1 0 0 0-2 0v3h-.375a1.238 1.238 0 0 1-1.25-1.222v-1.956A1 1 0 0 0 7 17.038a7.815 7.815 0 0 1-3-6.149 8 8 0 0 1 16 0 7.815 7.815 0 0 1-3 6.149Z" fill="#ffffff" class="fill-000000"></path><circle cx="9" cy="13" r="2" fill="#ffffff" class="fill-000000"></circle><circle cx="15" cy="13" r="2" fill="#ffffff" class="fill-000000"></circle></svg>