<svg viewBox="0 0 128 128" xml:space="preserve" xmlns="http://www.w3.org/2000/svg" enable-background="new 0 0 128 128"><path d="M64 1.2C29.3 1.2 1.2 29.3 1.2 64s28.2 62.8 62.8 62.8 62.8-28.2 62.8-62.8S98.7 1.2 64 1.2zm0 7.6c13.6 0 26 4.9 35.6 13.1L84.4 37c-5.7-4.3-12.8-6.9-20.4-6.9S49.2 32.7 43.6 37L28.4 21.9C38 13.8 50.4 8.8 64 8.8zM90.2 64c0 14.4-11.7 26.2-26.2 26.2S37.8 78.4 37.8 64 49.6 37.8 64 37.8 90.2 49.6 90.2 64zM8.8 64c0-14.1 5.3-27 14.1-36.7L38 42.4c-4.9 5.9-7.8 13.4-7.8 21.6 0 7.7 2.6 14.8 6.9 20.4L21.9 99.6C13.8 90 8.8 77.6 8.8 64zM64 119.2c-14.1 0-27-5.3-36.7-14.1L42.4 90c5.9 4.9 13.4 7.8 21.6 7.8s15.8-2.9 21.6-7.8l15.1 15.1c-9.7 8.7-22.6 14.1-36.7 14.1zm42.1-19.6L91 84.4c4.3-5.7 6.9-12.8 6.9-20.4 0-8.2-2.9-15.8-7.8-21.6l15.1-15.1c8.7 9.8 14.1 22.6 14.1 36.7-.1 13.6-5.1 26-13.2 35.6z" fill="#ffffff" class="fill-000000"></path></svg>