<svg fill="none" viewBox="0 0 24 24" xmlns="http://www.w3.org/2000/svg"><path clip-rule="evenodd" d="M11 18v1.938A8.004 8.004 0 0 1 4.062 13H6a1 1 0 1 0 0-2H4.062A8.004 8.004 0 0 1 11 4.062V6a1 1 0 1 0 2 0V4.062A8.004 8.004 0 0 1 19.938 11H18a1 1 0 1 0 0 2h1.938A8.004 8.004 0 0 1 13 19.938V18a1 1 0 1 0-2 0Zm11-6c0 5.523-4.477 10-10 10S2 17.523 2 12 6.477 2 12 2s10 4.477 10 10Zm-10 2.5a1 1 0 0 1-1-1V13h-.5a1 1 0 1 1 0-2h.5v-.5a1 1 0 1 1 2 0v.5h.5a1 1 0 1 1 0 2H13v.5a1 1 0 0 1-1 1Z" fill="#ffffff" fill-rule="evenodd" class="fill-000000"></path></svg>